<?xml version="1.0" encoding="UTF-8"?>
<!DOCTYPE svg PUBLIC "-//W3C//DTD SVG 1.1//EN" "http://www.w3.org/Graphics/SVG/1.1/DTD/svg11.dtd">
<svg xmlns="http://www.w3.org/2000/svg" version="1.1" width="608px" height="134px" style="shape-rendering:geometricPrecision; text-rendering:geometricPrecision; image-rendering:optimizeQuality; fill-rule:evenodd; clip-rule:evenodd" xmlns:xlink="http://www.w3.org/1999/xlink">
<g><path style="opacity:1" fill="#fefefe" d="M -0.5,-0.5 C 202.167,-0.5 404.833,-0.5 607.5,-0.5C 607.5,44.1667 607.5,88.8333 607.5,133.5C 481.167,133.5 354.833,133.5 228.5,133.5C 240.488,125.827 248.822,115.161 253.5,101.5C 256.966,97.9261 259.966,93.9261 262.5,89.5C 259.233,86.1941 255.567,83.3608 251.5,81C 250.004,80.4926 248.837,80.9926 248,82.5C 246.03,85.9681 243.864,89.3015 241.5,92.5C 244.864,95.1751 248.197,97.8418 251.5,100.5C 249.226,107.271 245.226,112.771 239.5,117C 233.616,120.458 227.95,120.292 222.5,116.5C 218.874,113.905 216.208,110.572 214.5,106.5C 216.39,104.41 218.057,102.077 219.5,99.5C 215.312,96.2435 210.979,93.2435 206.5,90.5C 205.188,86.5837 204.188,82.5837 203.5,78.5C 206.303,75.5833 208.637,72.25 210.5,68.5C 207.019,65.5914 203.352,62.9247 199.5,60.5C 199.552,58.0971 199.219,55.7638 198.5,53.5C 203.643,56.575 208.643,59.9084 213.5,63.5C 217.378,58.1256 221.045,52.6256 224.5,47C 219.727,42.4411 214.393,38.6078 208.5,35.5C 205.143,39.852 201.809,44.1853 198.5,48.5C 197.676,45.2356 197.342,41.9023 197.5,38.5C 197.5,34.8333 197.5,31.1667 197.5,27.5C 199.604,27.7989 201.604,27.4656 203.5,26.5C 203.376,25.8933 203.043,25.56 202.5,25.5C 197.518,16.8809 192.018,8.54754 186,0.5C 181.821,8.19371 177.654,15.8604 173.5,23.5C 172.972,24.7206 172.305,25.8873 171.5,27C 173.81,27.4966 176.143,27.6633 178.5,27.5C 178.182,32.0323 178.515,36.3656 179.5,40.5C 179.182,45.0323 179.515,49.3656 180.5,53.5C 180.5,56.5 180.5,59.5 180.5,62.5C 177.713,66.5702 175.046,70.7368 172.5,75C 176.089,79.1334 180.422,82.3001 185.5,84.5C 185.674,86.861 186.007,89.1944 186.5,91.5C 183.851,89.86 181.184,88.1933 178.5,86.5C 175.112,89.5971 172.445,93.2637 170.5,97.5C 174.167,100.167 177.833,102.833 181.5,105.5C 183.612,102.25 185.945,99.25 188.5,96.5C 189.833,99.8333 191.167,103.167 192.5,106.5C 194.76,112.033 197.76,117.033 201.5,121.5C 203.094,124.764 205.427,127.431 208.5,129.5C 210.167,130.833 211.833,132.167 213.5,133.5C 142.167,133.5 70.8333,133.5 -0.5,133.5C -0.5,88.8333 -0.5,44.1667 -0.5,-0.5 Z"/></g>
<g><path style="opacity:1" fill="#630510" d="M 202.5,25.5 C 192.96,22.9213 183.293,22.2546 173.5,23.5C 177.654,15.8604 181.821,8.19371 186,0.5C 192.018,8.54754 197.518,16.8809 202.5,25.5 Z"/></g>
<g><path style="opacity:1" fill="#800a16" d="M 202.5,25.5 C 203.043,25.56 203.376,25.8933 203.5,26.5C 201.604,27.4656 199.604,27.7989 197.5,27.5C 197.5,31.1667 197.5,34.8333 197.5,38.5C 196.751,37.469 196.085,36.3024 195.5,35C 190.276,33.8596 185.109,33.6929 180,34.5C 179.505,36.4727 179.338,38.4727 179.5,40.5C 178.515,36.3656 178.182,32.0323 178.5,27.5C 176.143,27.6633 173.81,27.4966 171.5,27C 172.305,25.8873 172.972,24.7206 173.5,23.5C 183.293,22.2546 192.96,22.9213 202.5,25.5 Z"/></g>
<g><path style="opacity:1" fill="#9a0819" d="M 197.5,38.5 C 197.342,41.9023 197.676,45.2356 198.5,48.5C 198.5,49.5 198.5,50.5 198.5,51.5C 192.969,48.6819 186.969,47.3486 180.5,47.5C 180.5,49.5 180.5,51.5 180.5,53.5C 179.515,49.3656 179.182,45.0323 179.5,40.5C 179.338,38.4727 179.505,36.4727 180,34.5C 185.109,33.6929 190.276,33.8596 195.5,35C 196.085,36.3024 196.751,37.469 197.5,38.5 Z"/></g>
<g><path style="opacity:1" fill="#177ab6" d="M 198.5,53.5 C 198.5,52.8333 198.5,52.1667 198.5,51.5C 198.5,50.5 198.5,49.5 198.5,48.5C 201.809,44.1853 205.143,39.852 208.5,35.5C 214.393,38.6078 219.727,42.4411 224.5,47C 221.045,52.6256 217.378,58.1256 213.5,63.5C 208.643,59.9084 203.643,56.575 198.5,53.5 Z"/></g>
<g><path style="opacity:1" fill="#1d67a2" d="M 234.5,46.5 C 239.566,48.5393 244.233,51.3726 248.5,55C 245.427,59.0229 242.26,62.8563 239,66.5C 234.884,64.1961 231.051,61.5295 227.5,58.5C 229.888,54.4656 232.222,50.4656 234.5,46.5 Z"/></g>
<g><path style="opacity:1" fill="#b40e1f" d="M 198.5,51.5 C 198.5,52.1667 198.5,52.8333 198.5,53.5C 199.219,55.7638 199.552,58.0971 199.5,60.5C 199.833,61.8333 200.167,63.1667 200.5,64.5C 194.766,60.8155 188.432,59.1489 181.5,59.5C 181.5,60.5 181.5,61.5 181.5,62.5C 181.167,62.5 180.833,62.5 180.5,62.5C 180.5,59.5 180.5,56.5 180.5,53.5C 180.5,51.5 180.5,49.5 180.5,47.5C 186.969,47.3486 192.969,48.6819 198.5,51.5 Z"/></g>
<g><path style="opacity:1" fill="#1c71ae" d="M 161.5,50.5 C 166.566,52.5393 171.233,55.3726 175.5,59C 172.662,63.3297 169.662,67.4964 166.5,71.5C 162.104,68.9749 158.104,65.9749 154.5,62.5C 156.888,58.4656 159.222,54.4656 161.5,50.5 Z"/></g>
<g><path style="opacity:1" fill="#1e5b95" d="M 249.5,56.5 C 253.207,58.6885 256.54,61.3552 259.5,64.5C 257.518,67.8103 255.185,70.8103 252.5,73.5C 249.301,71.1365 245.968,68.9698 242.5,67C 244.72,63.3854 247.053,59.8854 249.5,56.5 Z"/></g>
<g><path style="opacity:1" fill="#28afdd" d="M 347.5,57.5 C 350.564,57.1437 353.231,57.9771 355.5,60C 354.833,61 354.167,62 353.5,63C 352.049,62.7374 350.716,62.9041 349.5,63.5C 350.689,64.4287 352.022,64.762 353.5,64.5C 353.5,66.1667 353.5,67.8333 353.5,69.5C 352.167,69.5 350.833,69.5 349.5,69.5C 349.5,73.8333 349.5,78.1667 349.5,82.5C 347.5,82.5 345.5,82.5 343.5,82.5C 343.887,77.1862 343.221,72.0195 341.5,67C 342.679,63.2645 344.679,60.0978 347.5,57.5 Z"/></g>
<g><path style="opacity:1" fill="#20addc" d="M 297.5,59.5 C 301.911,59.021 306.078,59.6876 310,61.5C 310.722,63.6614 310.055,65.328 308,66.5C 305.772,64.8866 303.272,64.22 300.5,64.5C 300.5,65.5 300.5,66.5 300.5,67.5C 309.494,67.9557 312.661,72.289 310,80.5C 306.067,82.4777 301.9,82.9777 297.5,82C 292.592,80.0369 292.258,77.5369 296.5,74.5C 298.226,76.0298 300.226,77.0298 302.5,77.5C 304,77.5472 305,76.8805 305.5,75.5C 301.966,74.2124 298.633,72.5458 295.5,70.5C 292.789,66.2801 293.456,62.6134 297.5,59.5 Z"/></g>
<g><path style="opacity:1" fill="#17acdb" d="M 396.5,59.5 C 408.823,57.9906 414.323,63.324 413,75.5C 409.345,82.0702 403.845,84.2368 396.5,82C 387.214,74.5021 387.214,67.0021 396.5,59.5 Z"/></g>
<g><path style="opacity:1" fill="#26aedd" d="M 360.5,59.5 C 362.5,59.5 364.5,59.5 366.5,59.5C 366.5,61.1667 366.5,62.8333 366.5,64.5C 367.833,64.5 369.167,64.5 370.5,64.5C 370.5,66.1667 370.5,67.8333 370.5,69.5C 369.167,69.5 367.833,69.5 366.5,69.5C 366.5,72.1667 366.5,74.8333 366.5,77.5C 371.033,75.8697 372.366,77.3697 370.5,82C 366.219,83.4582 363.053,82.2916 361,78.5C 360.766,74.5318 359.933,70.6985 358.5,67C 359.78,64.6403 360.447,62.1403 360.5,59.5 Z"/></g>
<g><path style="opacity:1" fill="#289cce" d="M 199.5,60.5 C 203.352,62.9247 207.019,65.5914 210.5,68.5C 208.637,72.25 206.303,75.5833 203.5,78.5C 201.738,74.0268 200.738,69.3602 200.5,64.5C 200.167,63.1667 199.833,61.8333 199.5,60.5 Z"/></g>
<g><path style="opacity:1" fill="#157fbb" d="M 230.5,67.5 C 230.651,77.5542 227.984,86.8876 222.5,95.5C 216.811,92.3243 211.477,88.6577 206.5,84.5C 211.624,77.086 216.624,69.586 221.5,62C 225.044,62.7794 228.044,64.6128 230.5,67.5 Z"/></g>
<g><path style="opacity:1" fill="#fafcfd" d="M 399.5,64.5 C 406.314,64.49 408.814,67.8233 407,74.5C 402.927,78.6185 399.26,78.2852 396,73.5C 394.98,69.5532 396.147,66.5532 399.5,64.5 Z"/></g>
<g><path style="opacity:1" fill="#2d89c0" d="M 180.5,62.5 C 180.833,62.5 181.167,62.5 181.5,62.5C 181.43,66.4248 182.097,70.0915 183.5,73.5C 183.691,77.2621 184.358,80.9288 185.5,84.5C 180.422,82.3001 176.089,79.1334 172.5,75C 175.046,70.7368 177.713,66.5702 180.5,62.5 Z"/></g>
<g><path style="opacity:1" fill="#24aedc" d="M 322.5,64.5 C 331.998,63.1727 336.498,67.1727 336,76.5C 333.232,82.1725 328.732,84.0058 322.5,82C 317.845,79.1034 316.345,74.9367 318,69.5C 319.707,67.9625 321.207,66.2959 322.5,64.5 Z"/></g>
<g><path style="opacity:1" fill="#24aedc" d="M 420.5,64.5 C 425.162,65.6533 429.828,65.8199 434.5,65C 440.038,69.3927 440.871,74.5593 437,80.5C 433.826,82.6208 430.493,82.9542 427,81.5C 426.503,83.8098 426.337,86.1432 426.5,88.5C 424.5,88.5 422.5,88.5 420.5,88.5C 420.5,80.5 420.5,72.5 420.5,64.5 Z"/></g>
<g><path style="opacity:1" fill="#28aedd" d="M 449.5,64.5 C 453.219,64.0025 456.553,64.8358 459.5,67C 458.845,68.4866 457.845,69.6533 456.5,70.5C 454.902,69.5153 453.235,69.3486 451.5,70C 453.5,71 455.5,72 457.5,73C 460.911,78.6848 459.244,82.1848 452.5,83.5C 449.318,83.0517 446.651,81.7184 444.5,79.5C 446.426,75.9939 448.926,75.6605 452,78.5C 452.5,78.1667 453,77.8333 453.5,77.5C 450.914,75.9574 448.414,74.2907 446,72.5C 444.78,68.7069 445.947,66.0402 449.5,64.5 Z"/></g>
<g><path style="opacity:1" fill="#1a5d97" d="M 143.5,65.5 C 149.229,67.8699 154.563,71.0365 159.5,75C 156.367,80.0987 152.867,84.932 149,89.5C 144.08,86.2901 139.246,82.9567 134.5,79.5C 138.02,75.1164 141.02,70.4497 143.5,65.5 Z"/></g>
<g><path style="opacity:1" fill="#1a4881" d="M 266.5,62.5 C 272.031,65.0304 277.031,68.3637 281.5,72.5C 278.645,77.5566 275.312,82.2233 271.5,86.5C 266.531,83.5225 261.865,80.1892 257.5,76.5C 260.511,71.8051 263.511,67.1384 266.5,62.5 Z"/></g>
<g><path style="opacity:1" fill="#fafdfe" d="M 325.5,69.5 C 330.262,70.0925 331.596,72.5925 329.5,77C 325.798,78.3927 323.798,77.226 323.5,73.5C 323.803,71.8857 324.47,70.5523 325.5,69.5 Z"/></g>
<g><path style="opacity:1" fill="#fafdfe" d="M 428.5,69.5 C 433.262,70.0925 434.596,72.5925 432.5,77C 426.413,77.2054 425.079,74.7054 428.5,69.5 Z"/></g>
<g><path style="opacity:1" fill="#d21025" d="M 200.5,64.5 C 200.738,69.3602 201.738,74.0268 203.5,78.5C 204.188,82.5837 205.188,86.5837 206.5,90.5C 208.286,96.0719 210.619,101.405 213.5,106.5C 211.794,113.219 207.794,118.219 201.5,121.5C 197.76,117.033 194.76,112.033 192.5,106.5C 200.783,101.91 203.616,94.9103 201,85.5C 197.714,77.7043 191.881,73.7043 183.5,73.5C 182.097,70.0915 181.43,66.4248 181.5,62.5C 181.5,61.5 181.5,60.5 181.5,59.5C 188.432,59.1489 194.766,60.8155 200.5,64.5 Z"/></g>
<g><path style="opacity:1" fill="#1b6da9" d="M 230.5,67.5 C 235.643,70.575 240.643,73.9084 245.5,77.5C 240.167,85.1667 234.833,92.8333 229.5,100.5C 226.923,99.0569 224.59,97.3902 222.5,95.5C 227.984,86.8876 230.651,77.5542 230.5,67.5 Z"/></g>
<g><path style="opacity:1" fill="#ec182b" d="M 183.5,73.5 C 191.881,73.7043 197.714,77.7043 201,85.5C 203.616,94.9103 200.783,101.91 192.5,106.5C 191.167,103.167 189.833,99.8333 188.5,96.5C 188.598,94.4471 187.931,92.7804 186.5,91.5C 186.007,89.1944 185.674,86.861 185.5,84.5C 184.358,80.9288 183.691,77.2621 183.5,73.5 Z"/></g>
<g><path style="opacity:1" fill="#1f73af" d="M 163.5,78.5 C 167.654,80.0766 171.321,82.4099 174.5,85.5C 172.167,88.8333 169.833,92.1667 167.5,95.5C 164.025,93.1924 160.692,90.6924 157.5,88C 160.146,85.1984 162.146,82.0317 163.5,78.5 Z"/></g>
<g><path style="opacity:1" fill="#1a5590" d="M 253.5,101.5 C 253.158,100.662 252.492,100.328 251.5,100.5C 248.197,97.8418 244.864,95.1751 241.5,92.5C 243.864,89.3015 246.03,85.9681 248,82.5C 248.837,80.9926 250.004,80.4926 251.5,81C 255.567,83.3608 259.233,86.1941 262.5,89.5C 259.966,93.9261 256.966,97.9261 253.5,101.5 Z"/></g>
<g><path style="opacity:1" fill="#3077b1" d="M 206.5,90.5 C 210.979,93.2435 215.312,96.2435 219.5,99.5C 218.057,102.077 216.39,104.41 214.5,106.5C 214.167,106.5 213.833,106.5 213.5,106.5C 210.619,101.405 208.286,96.0719 206.5,90.5 Z"/></g>
<g><path style="opacity:1" fill="#2079b5" d="M 186.5,91.5 C 187.931,92.7804 188.598,94.4471 188.5,96.5C 185.945,99.25 183.612,102.25 181.5,105.5C 177.833,102.833 174.167,100.167 170.5,97.5C 172.445,93.2637 175.112,89.5971 178.5,86.5C 181.184,88.1933 183.851,89.86 186.5,91.5 Z"/></g>
<g><path style="opacity:1" fill="#b10e1f" d="M 213.5,106.5 C 213.833,106.5 214.167,106.5 214.5,106.5C 216.208,110.572 218.874,113.905 222.5,116.5C 219.061,122.276 214.395,126.609 208.5,129.5C 205.427,127.431 203.094,124.764 201.5,121.5C 207.794,118.219 211.794,113.219 213.5,106.5 Z"/></g>
<g><path style="opacity:1" fill="#8e0a18" d="M 251.5,100.5 C 252.492,100.328 253.158,100.662 253.5,101.5C 248.822,115.161 240.488,125.827 228.5,133.5C 223.5,133.5 218.5,133.5 213.5,133.5C 211.833,132.167 210.167,130.833 208.5,129.5C 214.395,126.609 219.061,122.276 222.5,116.5C 227.95,120.292 233.616,120.458 239.5,117C 245.226,112.771 249.226,107.271 251.5,100.5 Z"/></g>
</svg>
